<svg preserveAspectRatio="none" width="100%" height="100%" overflow="visible" style="display: block;" viewBox="0 0 21 21" fill="none" xmlns="http://www.w3.org/2000/svg">
<path id="icon" fill-rule="evenodd" clip-rule="evenodd" d="M0 7.25C0 3.24579 3.24579 0 7.25 0C11.2542 0 14.5 3.24579 14.5 7.25C14.5 8.98195 13.8928 10.572 12.8796 11.8189L20.2801 19.2194L19.2194 20.2801L11.8189 12.8796C10.572 13.8928 8.98195 14.5 7.25 14.5C3.24579 14.5 0 11.2542 0 7.25ZM7.25 1.5C4.07421 1.5 1.5 4.07421 1.5 7.25C1.5 10.4258 4.07421 13 7.25 13C10.4258 13 13 10.4258 13 7.25C13 4.07421 10.4258 1.5 7.25 1.5Z" fill="var(--fill-0, white)"/>
</svg>
